<svg width="250" height="250" viewBox="0 0 250 250" fill="none" xmlns="http://www.w3.org/2000/svg">
<path d="M125 114.583C122.237 114.583 119.588 115.681 117.634 117.634C115.681 119.588 114.583 122.237 114.583 125V166.667C114.583 169.429 115.681 172.079 117.634 174.032C119.588 175.986 122.237 177.083 125 177.083C127.762 177.083 130.412 175.986 132.365 174.032C134.319 172.079 135.416 169.429 135.416 166.667V125C135.416 122.237 134.319 119.588 132.365 117.634C130.412 115.681 127.762 114.583 125 114.583ZM128.958 73.7499C126.422 72.7081 123.577 72.7081 121.041 73.7499C119.763 74.2457 118.595 74.9891 117.604 75.9374C116.684 76.9499 115.944 78.1126 115.416 79.3749C114.833 80.6112 114.548 81.9668 114.583 83.3333C114.575 84.7042 114.838 86.0631 115.356 87.3323C115.875 88.6014 116.638 89.7558 117.604 90.7291C118.616 91.6492 119.779 92.3891 121.041 92.9166C122.619 93.5649 124.333 93.8157 126.03 93.6469C127.728 93.4781 129.358 92.8949 130.778 91.9486C132.198 91.0022 133.363 89.7216 134.172 88.2194C134.98 86.7172 135.408 85.0393 135.416 83.3333C135.378 80.5753 134.299 77.9336 132.396 75.9374C131.405 74.9891 130.237 74.2457 128.958 73.7499ZM125 20.8333C104.398 20.8333 84.2579 26.9425 67.1278 38.3885C49.9977 49.8345 36.6464 66.1031 28.7623 85.1371C20.8781 104.171 18.8153 125.115 22.8346 145.322C26.8539 165.528 36.7748 184.089 51.3428 198.657C65.9107 213.225 84.4715 223.146 104.678 227.165C124.884 231.184 145.829 229.122 164.863 221.237C183.897 213.353 200.165 200.002 211.611 182.872C223.057 165.742 229.166 145.602 229.166 125C229.166 111.321 226.472 97.7751 221.237 85.1371C216.002 72.499 208.329 61.0157 198.657 51.343C188.984 41.6702 177.501 33.9973 164.863 28.7625C152.225 23.5276 138.679 20.8333 125 20.8333V20.8333ZM125 208.333C108.518 208.333 92.4063 203.446 78.7022 194.289C64.9981 185.132 54.3171 172.117 48.0098 156.89C41.7025 141.663 40.0522 124.907 43.2676 108.742C46.4831 92.5773 54.4198 77.7287 66.0742 66.0744C77.7285 54.42 92.5771 46.4833 108.742 43.2678C124.907 40.0524 141.663 41.7027 156.89 48.01C172.117 54.3173 185.132 64.9983 194.289 78.7024C203.446 92.4065 208.333 108.518 208.333 125C208.333 147.101 199.553 168.297 183.925 183.925C168.297 199.554 147.101 208.333 125 208.333V208.333Z" fill="black"/>
</svg>
