<svg width="250" height="250" viewBox="0 0 250 250" fill="none" xmlns="http://www.w3.org/2000/svg">
<path d="M145.833 187.5C148.596 187.5 151.246 186.403 153.199 184.449C155.153 182.496 156.25 179.846 156.25 177.083V156.25C156.25 153.487 155.153 150.838 153.199 148.884C151.246 146.931 148.596 145.833 145.833 145.833C143.071 145.833 140.421 146.931 138.468 148.884C136.514 150.838 135.417 153.487 135.417 156.25V177.083C135.417 179.846 136.514 182.496 138.468 184.449C140.421 186.403 143.071 187.5 145.833 187.5ZM104.167 187.5C106.929 187.5 109.579 186.403 111.532 184.449C113.486 182.496 114.583 179.846 114.583 177.083V156.25C114.583 153.487 113.486 150.838 111.532 148.884C109.579 146.931 106.929 145.833 104.167 145.833C101.404 145.833 98.7545 146.931 96.801 148.884C94.8475 150.838 93.7501 153.487 93.7501 156.25V177.083C93.7501 179.846 94.8475 182.496 96.801 184.449C98.7545 186.403 101.404 187.5 104.167 187.5ZM197.917 62.5H183.542L165.521 26.5625C164.97 25.2401 164.153 24.0456 163.12 23.0534C162.086 22.0613 160.86 21.2929 159.516 20.7963C158.172 20.2997 156.741 20.0855 155.311 20.1672C153.881 20.2488 152.483 20.6246 151.204 21.2709C149.926 21.9173 148.795 22.8203 147.881 23.9236C146.968 25.0269 146.292 26.3068 145.895 27.6833C145.499 29.0597 145.39 30.5032 145.577 31.9234C145.763 33.3436 146.241 34.7101 146.979 35.9375L160.208 62.5H89.7917L103.021 35.9375C104.032 33.5094 104.087 30.7888 103.175 28.3217C102.263 25.8547 100.452 23.8239 98.1049 22.6371C95.7577 21.4504 93.0484 21.1954 90.5211 21.9235C87.9937 22.6516 85.8353 24.3089 84.4792 26.5625L66.4584 62.5H52.0834C44.7208 62.612 37.6342 65.3203 32.0735 70.1472C26.5128 74.9741 22.8352 81.6096 21.6894 88.8834C20.5435 96.1572 22.003 103.602 25.8103 109.905C29.6177 116.207 35.5285 120.963 42.5001 123.333L50.2084 201.042C50.9857 208.777 54.6182 215.944 60.3967 221.145C66.1751 226.346 73.6844 229.206 81.4584 229.167H168.75C176.524 229.206 184.033 226.346 189.812 221.145C195.59 215.944 199.223 208.777 200 201.042L207.708 123.333C214.695 120.956 220.615 116.183 224.42 109.859C228.225 103.535 229.668 96.0691 228.496 88.7827C227.323 81.4964 223.609 74.8603 218.012 70.0497C212.415 65.2392 205.297 62.5647 197.917 62.5V62.5ZM179.063 198.958C178.803 201.537 177.593 203.926 175.666 205.659C173.74 207.393 171.237 208.346 168.646 208.333H81.3542C78.7629 208.346 76.2598 207.393 74.3337 205.659C72.4075 203.926 71.1967 201.537 70.9376 198.958L63.5417 125H186.458L179.063 198.958ZM197.917 104.167H52.0834C49.3207 104.167 46.6712 103.069 44.7177 101.116C42.7642 99.1622 41.6667 96.5127 41.6667 93.75C41.6667 90.9873 42.7642 88.3378 44.7177 86.3843C46.6712 84.4308 49.3207 83.3333 52.0834 83.3333H197.917C200.679 83.3333 203.329 84.4308 205.282 86.3843C207.236 88.3378 208.333 90.9873 208.333 93.75C208.333 96.5127 207.236 99.1622 205.282 101.116C203.329 103.069 200.679 104.167 197.917 104.167Z" fill="#067A46"/>
</svg>
